<svg width="20" height="20" viewBox="0 0 20 20" fill="none" xmlns="http://www.w3.org/2000/svg">
<path fill-rule="evenodd" clip-rule="evenodd" d="M19.6 9.99999C19.6 12.5461 18.5886 14.9879 16.7882 16.7882C14.9879 18.5886 12.5461 19.6 10 19.6C7.45395 19.6 5.01215 18.5886 3.2118 16.7882C1.41145 14.9879 0.400024 12.5461 0.400024 9.99999C0.400024 7.45392 1.41145 5.01212 3.2118 3.21177C5.01215 1.41142 7.45395 0.399994 10 0.399994C12.5461 0.399994 14.9879 1.41142 16.7882 3.21177C18.5886 5.01212 19.6 7.45392 19.6 9.99999V9.99999ZM17.2 9.99999C17.2 11.1916 16.9108 12.3148 16.3984 13.3048L14.5696 11.4748C14.8435 10.6272 14.8759 9.72015 14.6632 8.85519L16.5376 6.98079C16.9624 7.89879 17.2 8.91999 17.2 9.99999ZM11.002 14.6956L12.898 16.5916C11.9848 16.9937 10.9978 17.2009 10 17.2C8.95744 17.2013 7.92711 16.9752 6.98082 16.5376L8.85522 14.6632C9.55923 14.8357 10.2931 14.8468 11.002 14.6956V14.6956ZM5.38962 11.3404C5.15348 10.5273 5.1365 9.66618 5.34042 8.84439L5.24442 8.94039L3.40842 7.10079C3.00619 8.01436 2.79897 9.0018 2.80002 9.99999C2.80002 11.1448 3.06762 12.2272 3.54282 13.1884L5.39082 11.3404H5.38962ZM6.69522 3.60039C7.71669 3.07242 8.85017 2.79789 10 2.79999C11.1448 2.79999 12.2272 3.06759 13.1884 3.54279L11.3404 5.39079C10.4191 5.12244 9.43859 5.13624 8.52522 5.43039L6.69522 3.60159V3.60039ZM12.4 9.99999C12.4 10.6365 12.1472 11.247 11.6971 11.697C11.247 12.1471 10.6365 12.4 10 12.4C9.3635 12.4 8.75306 12.1471 8.30297 11.697C7.85288 11.247 7.60002 10.6365 7.60002 9.99999C7.60002 9.36347 7.85288 8.75302 8.30297 8.30294C8.75306 7.85285 9.3635 7.59999 10 7.59999C10.6365 7.59999 11.247 7.85285 11.6971 8.30294C12.1472 8.75302 12.4 9.36347 12.4 9.99999V9.99999Z" fill="#111827"/>
</svg>
